<?xml version="1.0" encoding="utf-8"?>
<!-- Generator: Adobe Illustrator 23.0.4, SVG Export Plug-In . SVG Version: 6.00 Build 0)  -->
<svg version="1.2" baseProfile="tiny" id="Camada_1"
	 xmlns="http://www.w3.org/2000/svg" xmlns:xlink="http://www.w3.org/1999/xlink" x="0px" y="0px" viewBox="0 0 200 200"
	 xml:space="preserve">
<g>
	<ellipse fill="none" cx="100" cy="74.9" rx="18.8" ry="19"/>
	<path fill="none" d="M117.5,116c-2.9,0-7.4,3.2-17.5,3.2c-10,0-14.7-3.2-17.5-3.2c-9.3,0-16.9,7.7-16.9,17.1v5.1h68.9V133
		C134.4,123.6,126.8,116,117.5,116z"/>
	<path fill="#FFFFFF" d="M117.5,106.5c-5.6,0-8.3,3.2-17.5,3.2c-9.2,0-11.9-3.2-17.5-3.2c-14.5,0-26.3,11.9-26.3,26.5v5.1
		c0,5.2,4.2,9.5,9.4,9.5h68.9c5.2,0,9.4-4.2,9.4-9.5V133C143.8,118.4,132,106.5,117.5,106.5z M134.4,138.1H65.6V133
		c0-9.4,7.6-17.1,16.9-17.1c2.9,0,7.5,3.2,17.5,3.2c10.1,0,14.7-3.2,17.5-3.2c9.3,0,16.9,7.7,16.9,17.1V138.1z"/>
	<path fill="#FFFFFF" d="M100,103.3c15.6,0,28.2-12.7,28.2-28.4S115.6,46.4,100,46.4S71.8,59.2,71.8,74.9S84.4,103.3,100,103.3z
		 M100,55.9c10.3,0,18.8,8.5,18.8,19s-8.4,19-18.8,19c-10.3,0-18.8-8.5-18.8-19S89.7,55.9,100,55.9z"/>
</g>
</svg>
