<?xml version="1.0" encoding="utf-8"?>
<!-- Generator: Adobe Illustrator 23.0.4, SVG Export Plug-In . SVG Version: 6.00 Build 0)  -->
<svg version="1.2" baseProfile="tiny" id="Camada_1"
	 xmlns="http://www.w3.org/2000/svg" xmlns:xlink="http://www.w3.org/1999/xlink" x="0px" y="0px" viewBox="0 0 200 200"
	 xml:space="preserve">
<path fill="#ED145B" d="M192.2,76.6c0,5.2-0.9,10.4-2.5,15.4c-7.8,35.4-75.5,78.3-78.4,80.1c-0.9,0.6-1.9,0.9-2.9,0.9
	c-1,0-2.1-0.3-3-0.9c-0.8-0.5-19.9-12.5-39.2-29.1c-2.3-2-2.6-5.4-0.6-7.7c2-2.3,5.4-2.6,7.8-0.6c14.4,12.3,29,22.3,35,26.3
	c20.3-13.3,65.2-47,70.7-71.9c1.4-4.4,2.1-8.4,2.1-12.4c0-14.1-7.7-27.1-20.1-34c-15.8-8.8-37-4.7-48.5,9.2c-2.1,2.5-6.4,2.5-8.5,0
	c-11.6-14-32.8-18-48.5-9.2c-12.4,6.8-20.1,19.8-20.1,34c0,4,0.7,8,2,11.9c0.8,3.6,2.4,7.2,4.4,10.9h32.1l11-25.3
	c0.9-2.2,3.2-3.5,5.5-3.3c2.4,0.2,4.3,1.9,4.9,4.2l8.1,34.3l10.5-17.2c1-1.6,2.8-2.6,4.7-2.6h19.9c3,0,5.5,2.5,5.5,5.5
	c0,3-2.5,5.5-5.5,5.5h-16.8l-15.8,26c-1,1.7-2.8,2.6-4.7,2.6c-0.3,0-0.6,0-0.9-0.1c-2.2-0.4-4-2-4.5-4.2l-7.4-31.2l-5.9,13.5
	c-0.9,2-2.9,3.3-5,3.3H13.3c-3,0-5.5-2.5-5.5-5.5c0-3,2.5-5.5,5.5-5.5h16.1c-1.1-2.7-2.1-5.4-2.6-7.9c-1.5-4.4-2.4-9.6-2.4-14.8
	c0-18.1,9.9-34.8,25.8-43.6c18.4-10.2,42.9-7,58.1,7.3c15.2-14.3,39.6-17.5,58.1-7.3C182.3,41.8,192.2,58.5,192.2,76.6z"/>
</svg>
