<?xml version="1.0" encoding="utf-8"?>
<!-- Generator: Adobe Illustrator 23.0.4, SVG Export Plug-In . SVG Version: 6.00 Build 0)  -->
<svg version="1.2" baseProfile="tiny" id="Camada_1"
	 xmlns="http://www.w3.org/2000/svg" xmlns:xlink="http://www.w3.org/1999/xlink" x="0px" y="0px" viewBox="0 0 475.5 61.1"
	 xml:space="preserve">
<g>
	<g id="logo-group">
		<g id="title">
			<path id="path67025" fill="#ED145B" d="M128.4,20.5c-2.2-1.2-4.7-1.8-7.4-1.8c-2,0-3.9,0.4-5.6,1.1c-1.8,0.7-3.3,1.7-4.6,2.9V8
				c0-0.9-0.3-1.6-0.8-2.2c-0.6-0.5-1.3-0.8-2.2-0.8c-0.9,0-1.6,0.3-2.2,0.8c-0.6,0.6-0.8,1.3-0.8,2.2v40.8c0,0.9,0.2,1.6,0.8,2.2
				c0.6,0.6,1.3,0.8,2.2,0.8c0.9,0,1.6-0.2,2.2-0.8c0.5-0.6,0.8-1.3,0.8-2.2V31.9c0-1.4,0.4-2.7,1.1-3.9c0.8-1.1,1.9-2,3.2-2.8
				c1.4-0.7,2.9-1,4.6-1c2.9,0,5.2,0.8,6.9,2.5s2.6,4.1,2.6,7.3v14.7c0,0.9,0.2,1.6,0.8,2.2c0.6,0.6,1.3,0.8,2.2,0.8
				c0.8,0,1.6-0.2,2.2-0.8c0.6-0.6,0.9-1.3,0.9-2.2V34c0-3.2-0.7-6-1.9-8.3C132.3,23.5,130.6,21.7,128.4,20.5z"/>
			<path id="path67027" fill="#ED145B" d="M174.3,36.8c0.5-0.5,0.8-1.1,0.8-1.9c0-3.1-0.6-5.9-1.8-8.4c-1.2-2.4-2.9-4.3-5.2-5.7
				c-2.3-1.3-4.9-2-8-2c-3.1,0-5.9,0.7-8.4,2.2c-2.5,1.4-4.4,3.4-5.8,5.9c-1.4,2.5-2,5.4-2,8.6c0,3.2,0.7,6.1,2.2,8.6
				c1.4,2.5,3.5,4.5,6.1,5.9c2.6,1.4,5.5,2.1,8.8,2.1c1.8,0,3.7-0.3,5.8-1c2-0.7,3.7-1.6,5.1-2.6c0.6-0.5,1-1.1,1-1.8
				c0-0.7-0.4-1.4-1.1-2c-0.5-0.4-1.1-0.6-1.8-0.6c-0.8,0-1.4,0.2-2,0.7c-0.8,0.7-1.9,1.2-3.2,1.6c-1.3,0.5-2.5,0.7-3.7,0.7
				c-3.1,0-5.6-0.8-7.7-2.6c-2.1-1.7-3.4-4-3.8-6.8h22.8C173.1,37.5,173.7,37.3,174.3,36.8L174.3,36.8z M153,26.3
				c1.8-1.6,4.2-2.4,7.1-2.4c2.6,0,4.7,0.8,6.4,2.4c1.6,1.6,2.6,3.8,3,6.4h-20C150.1,30.1,151.2,27.9,153,26.3z"/>
			<path id="path67029" fill="#ED145B" d="M213,35.4c0-3.1-0.8-5.9-2.2-8.5c-1.4-2.5-3.4-4.6-5.9-6c-2.5-1.4-5.3-2.2-8.3-2.2
				c-3.1,0-5.9,0.8-8.5,2.2c-2.5,1.4-4.5,3.5-5.9,6c-1.4,2.5-2.2,5.3-2.2,8.5c0,3.1,0.7,6,2,8.5c1.3,2.5,3.2,4.5,5.5,5.9
				c2.4,1.5,5,2.2,7.9,2.2h0.5h14.3c0.8,0,1.4-0.3,2-0.8c0.5-0.5,0.8-1.2,0.8-2v-0.4L213,35.4z M187.3,41.2c-1-1.7-1.4-3.6-1.4-5.8
				c0-2.1,0.4-4,1.4-5.8c1-1.7,2.2-3.1,3.8-4c1.6-1,3.4-1.5,5.5-1.5c2,0,3.8,0.5,5.4,1.5c1.6,1,2.9,2.3,3.8,4
				c0.9,1.7,1.4,3.7,1.4,5.8c0,2.2-0.5,4.1-1.4,5.8c-1,1.7-2.2,3.1-3.8,4c-1.6,1-3.4,1.4-5.4,1.4c-2,0-3.8-0.5-5.5-1.4
				S188.2,42.8,187.3,41.2z"/>
			<path id="path67031" fill="#ED145B" d="M221.8,5.8C221.2,6.4,221,7.1,221,8v32.7c0,2.2,0.4,4.1,1.1,5.8c0.7,1.7,1.8,3,3.2,4
				c1.4,1,2.9,1.4,4.7,1.4h0.1c1.2,0,2.2-0.2,2.9-0.8c0.7-0.5,1.1-1.3,1.1-2.2c0-0.8-0.3-1.6-0.8-2.2c-0.5-0.5-1.1-0.8-1.9-0.8H230
				c-0.9,0-1.6-0.5-2.2-1.4c-0.6-1-0.8-2.2-0.8-3.7V8c0-0.8-0.3-1.6-0.8-2.2C225.6,5.3,224.8,5,224,5C223.1,5,222.4,5.3,221.8,5.8z"
				/>
			<path id="path67033" fill="#ED145B" d="M241.6,20.2v5.2v14.8c0,2.2,0.4,4.2,1.4,5.9c0.9,1.8,2.2,3.2,3.8,4.2
				c1.6,1,3.4,1.5,5.4,1.5h1.1c1,0,1.9-0.2,2.5-0.8c0.7-0.5,1-1.3,1-2.2c0-0.8-0.3-1.6-0.8-2.2c-0.5-0.5-1.1-0.8-1.8-0.8h-2
				c-1.3,0-2.4-0.5-3.2-1.6c-0.9-1.1-1.3-2.4-1.3-4V25.3h5.1c0.8,0,1.5-0.2,2-0.7c0.5-0.5,0.8-1.1,0.8-1.8c0-0.8-0.3-1.4-0.8-1.9
				c-0.5-0.5-1.2-0.7-2-0.7h-5.1v-8.6c0-0.8-0.3-1.6-0.8-2.2c-0.6-0.5-1.3-0.8-2.2-0.8c-0.9,0-1.6,0.3-2.2,0.8
				c-0.6,0.6-0.8,1.3-0.8,2.2L241.6,20.2z"/>
			<path id="path67035" fill="#ED145B" d="M288,20.5c-2.2-1.2-4.7-1.8-7.4-1.8c-2,0-3.9,0.4-5.6,1.1c-1.8,0.7-3.3,1.7-4.6,2.9V8
				c0-0.9-0.3-1.6-0.8-2.2c-0.6-0.5-1.3-0.8-2.2-0.8c-0.9,0-1.6,0.3-2.2,0.8c-0.6,0.6-0.8,1.3-0.8,2.2v40.8c0,0.9,0.2,1.6,0.8,2.2
				s1.3,0.8,2.2,0.8c0.9,0,1.6-0.2,2.2-0.8c0.5-0.6,0.8-1.3,0.8-2.2V31.9c0-1.4,0.4-2.7,1.1-3.9c0.8-1.1,1.9-2,3.2-2.8
				c1.4-0.7,2.9-1,4.6-1c2.9,0,5.2,0.8,6.9,2.5c1.7,1.7,2.6,4.1,2.6,7.3v14.7c0,0.9,0.2,1.6,0.8,2.2c0.6,0.6,1.3,0.8,2.2,0.8
				c0.8,0,1.6-0.2,2.2-0.8s0.9-1.3,0.9-2.2V34c0-3.2-0.7-6-1.9-8.3C291.9,23.5,290.1,21.7,288,20.5L288,20.5z"/>
			<path id="path67037" fill="#ED145B" d="M324.1,20.2v5.2v14.8c0,2.2,0.4,4.2,1.4,5.9c0.9,1.8,2.2,3.2,3.8,4.2
				c1.6,1,3.4,1.5,5.4,1.5h1.1c1,0,1.9-0.2,2.5-0.8c0.7-0.5,1-1.3,1-2.2c0-0.8-0.3-1.6-0.8-2.2c-0.5-0.5-1.1-0.8-1.8-0.8h-2
				c-1.3,0-2.4-0.5-3.2-1.6c-0.9-1.1-1.3-2.4-1.3-4V25.3h5.1c0.8,0,1.5-0.2,2-0.7c0.5-0.5,0.8-1.1,0.8-1.8c0-0.8-0.3-1.4-0.8-1.9
				c-0.5-0.5-1.2-0.7-2-0.7h-5.1v-8.6c0-0.8-0.3-1.6-0.8-2.2c-0.6-0.5-1.3-0.8-2.2-0.8c-0.9,0-1.6,0.3-2.2,0.8
				c-0.6,0.6-0.8,1.3-0.8,2.2L324.1,20.2z"/>
			<path id="path67039" fill="#ED145B" d="M367.8,19.6c-1.2-0.6-2.9-1-5-1c-2,0-3.9,0.4-5.6,1.2c-1.8,0.8-3.2,1.9-4.4,3.3V22
				c0-2-1-3-3-3c-1,0-1.7,0.3-2.2,0.8c-0.5,0.5-0.8,1.3-0.8,2.2v26.8c0,1,0.2,1.8,0.8,2.3c0.5,0.5,1.3,0.7,2.2,0.7
				c1,0,1.7-0.2,2.2-0.8c0.5-0.5,0.8-1.3,0.8-2.2V31.3c0-2.2,0.8-4,2.6-5.3c1.7-1.3,4.1-2,7-2c1,0,2.3,0.2,3.9,0.4
				c0.4,0.1,0.7,0.1,0.9,0.1c1.2,0,2-0.6,2.4-1.9c0-0.1,0.1-0.3,0.1-0.6C369.6,21,369,20.2,367.8,19.6z"/>
			<path id="path67041" fill="#ED145B" d="M404.9,35.4c0-3.1-0.8-5.9-2.2-8.5c-1.4-2.5-3.4-4.6-5.9-6c-2.5-1.4-5.3-2.2-8.3-2.2
				c-3.1,0-5.9,0.8-8.5,2.2c-2.5,1.4-4.5,3.5-5.9,6c-1.4,2.5-2.2,5.3-2.2,8.5c0,3.1,0.7,6,2,8.5c1.3,2.5,3.2,4.5,5.5,5.9
				c2.4,1.5,5,2.2,7.9,2.2h0.5H402c0.8,0,1.4-0.3,2-0.8c0.5-0.5,0.8-1.2,0.8-2v-0.4L404.9,35.4z M379.1,41.2c-1-1.7-1.4-3.6-1.4-5.8
				c0-2.1,0.4-4,1.4-5.8c1-1.7,2.2-3.1,3.8-4c1.6-1,3.4-1.5,5.5-1.5c2,0,3.8,0.5,5.4,1.5s2.9,2.3,3.8,4c0.9,1.7,1.4,3.7,1.4,5.8
				c0,2.2-0.5,4.1-1.4,5.8c-1,1.7-2.2,3.1-3.8,4s-3.4,1.4-5.4,1.4c-2,0-3.8-0.5-5.5-1.4C381.3,44.2,380.1,42.8,379.1,41.2z"/>
			<path id="path67043" fill="#ED145B" d="M440.4,24.1c-3.1-3.6-7.1-5.4-11.7-5.4c-3.1,0-5.9,0.7-8.4,2.2c-2.5,1.4-4.4,3.4-5.8,5.9
				s-2,5.4-2,8.6c0,3.1,0.7,6,2.1,8.5s3.4,4.5,5.9,5.9c2.5,1.4,5.3,2.2,8.5,2.2c4.3,0,7.9-1.3,10.8-4c0.5-0.5,0.7-1,0.7-1.6
				c0-0.8-0.4-1.5-1.1-2.2c-0.5-0.4-1-0.5-1.6-0.5c-0.7,0-1.5,0.3-2.2,0.8c-1.7,1.4-3.9,2.1-6.6,2.1c-2.1,0-4-0.5-5.6-1.4
				s-2.9-2.3-3.8-4c-0.9-1.7-1.3-3.7-1.3-5.8c0-3.4,1-6.1,2.9-8.2s4.4-3.1,7.5-3.1c1.5,0,2.8,0.3,4,0.8s2.3,1.3,3.3,2.3
				c0.6,0.7,1.4,1.1,2.3,1.1c0.5,0,1-0.1,1.4-0.4c0.8-0.6,1.3-1.3,1.3-2.2C441,25.1,440.7,24.6,440.4,24.1L440.4,24.1z"/>
			<path id="path67045" fill="#ED145B" d="M475.5,49.3c0-0.7-0.2-1.3-0.7-1.8l-11.6-14.3l11-9.8c0.6-0.5,1-1.2,1-2
				c0-0.7-0.3-1.3-0.8-1.9c-0.5-0.6-1.2-1-2-1c-0.7,0-1.4,0.3-1.9,0.8l-14.6,13V7.9c0-0.8-0.3-1.6-0.8-2.1c-0.5-0.5-1.3-0.8-2.1-0.8
				c-0.9,0-1.6,0.3-2.2,0.8s-0.8,1.3-0.8,2.1v40.9c0,0.9,0.2,1.6,0.8,2.2c0.5,0.5,1.3,0.8,2.2,0.8c0.8,0,1.6-0.2,2.1-0.8
				c0.5-0.5,0.8-1.3,0.8-2.2v-9.2l3-2.6l11.4,14.1c0.5,0.7,1.3,1.1,2.2,1.1c0.7,0,1.3-0.2,1.9-0.7C475.2,50.9,475.5,50.2,475.5,49.3
				z"/>
		</g>
		<g id="tagline">
		</g>
	</g>
	<path fill="#ED145B" d="M77.2,20.8c0,2.2-0.4,4.4-1.1,6.4C72.9,42,44.5,60,43.3,60.8c-0.4,0.2-0.8,0.4-1.2,0.4
		c-0.4,0-0.9-0.1-1.2-0.4c-0.3-0.2-8.3-5.3-16.4-12.2c-1-0.8-1.1-2.3-0.3-3.2c0.8-1,2.3-1.1,3.2-0.3c6,5.2,12.1,9.3,14.7,11
		c8.5-5.6,27.3-19.7,29.6-30.1c0.6-1.8,0.9-3.5,0.9-5.2c0-5.9-3.2-11.4-8.4-14.2c-6.6-3.7-15.5-2-20.3,3.9c-0.9,1.1-2.7,1.1-3.5,0
		C35.4,4.6,26.6,2.9,20,6.5c-5.2,2.9-8.4,8.3-8.4,14.2c0,1.7,0.3,3.4,0.8,5c0.3,1.5,1,3,1.8,4.5h13.4l4.6-10.6
		c0.4-0.9,1.3-1.5,2.3-1.4c1,0.1,1.8,0.8,2,1.8L40,34.4l4.4-7.2c0.4-0.7,1.2-1.1,2-1.1h8.3c1.3,0,2.3,1,2.3,2.3c0,1.3-1,2.3-2.3,2.3
		h-7L41,41.6c-0.4,0.7-1.2,1.1-2,1.1c-0.1,0-0.2,0-0.4,0c-0.9-0.1-1.7-0.8-1.9-1.7l-3.1-13.1l-2.5,5.6c-0.4,0.8-1.2,1.4-2.1,1.4H2.3
		c-1.3,0-2.3-1-2.3-2.3c0-1.3,1-2.3,2.3-2.3h6.8C8.6,29.2,8.2,28,7.9,27c-0.6-1.9-1-4-1-6.2c0-7.6,4.1-14.6,10.8-18.3
		c7.7-4.3,18-2.9,24.3,3.1c6.4-6,16.6-7.3,24.3-3.1C73.1,6.2,77.2,13.2,77.2,20.8z"/>
</g>
</svg>
