<?xml version="1.0" encoding="utf-8"?>
<!-- Generator: Adobe Illustrator 23.0.3, SVG Export Plug-In . SVG Version: 6.00 Build 0)  -->
<svg version="1.2" baseProfile="tiny" id="Camada_1"
	 xmlns="http://www.w3.org/2000/svg" xmlns:xlink="http://www.w3.org/1999/xlink" x="0px" y="0px" viewBox="0 0 73.6 73.7"
	 xml:space="preserve">
<g>
	<rect x="22.9" y="28.3" fill="#ED145B" width="1.3" height="17.2"/>
	<rect x="9.4" y="36.5" fill="#ED145B" width="6.2" height="1.2"/>
	<polygon fill="#ED145B" points="4.6,45.5 5.9,45.5 5.9,37.7 5.9,37.7 5.9,36.5 5.9,36.5 5.9,29.5 19.1,29.5 19.1,28.3 4.6,28.3 	
		"/>
	<path fill="#ED145B" d="M62.6,28.3L62.6,28.3l-10.2,0v17.2h1.3V39h0v-1.2h0v-8.4h8.8c3.1,0,5.2,1.4,5.2,4.2v0
		c0,2.6-2.2,4.2-5.4,4.2h-4V39h4c3.6,0,6.7-1.9,6.7-5.5v0C69,30.2,66.4,28.3,62.6,28.3z"/>
	<polygon fill="#ED145B" points="37.8,28.2 27.2,45.5 28.5,45.5 38.4,29.6 43.5,37.9 45,37.9 39,28.2 	"/>
	<polygon fill="#ED145B" points="45.5,41 48.3,45.5 49.7,45.5 47,41 	"/>
</g>
</svg>
